<?xml version="1.0" standalone="no"?>
<!DOCTYPE svg PUBLIC "-//W3C//DTD SVG 20010904//EN"
 "http://www.w3.org/TR/2001/REC-SVG-20010904/DTD/svg10.dtd">
<svg version="1.0" xmlns="http://www.w3.org/2000/svg"
 width="300.000000pt" height="196.000000pt" viewBox="0 0 300.000000 196.000000"
 preserveAspectRatio="xMidYMid meet">
<metadata>
Created by potrace 1.10, written by Peter Selinger 2001-2011
</metadata>
<g transform="translate(0.000000,196.000000) scale(0.100000,-0.100000)"
fill="#000000" stroke="none">
<path d="M1035 1330 c-11 -4 -119 -79 -240 -167 -225 -162 -245 -182 -232
-234 6 -25 401 -358 457 -385 51 -26 109 12 110 71 0 35 -21 57 -159 171 l-85
69 753 5 753 5 19 24 c26 31 25 83 -2 107 -20 18 -51 19 -776 24 l-754 5 111
79 c134 94 150 111 150 151 0 51 -60 94 -105 75z"/>
</g>
</svg>
